# xmcd CD database file
#
# Track frame offsets:
#	150
#	20785
#	41400
#	59925
#	85200
#	106352
#	125107
#	148805
#	166935
#	194702
#	214442
#
# Disc length: 3200 seconds
#
# Revision: 0
# Processed by: cddbd v1.4PL0 Copyright (c) Steve Scherf et al.
# Submitted via: CDex 1.51
#
DISCID=b40c7e0b
DTITLE=albert washington - step it up and go
DYEAR=1992
DGENRE=Blues
TTITLE0=step it up and go
TTITLE1=since i fell for you
TTITLE2=things are getting bad
TTITLE3=hold on to a good woman
TTITLE4=way 'cross town
TTITLE5=everything seems brand new
TTITLE6=hard days
TTITLE7=leave them drugs alone
TTITLE8=you're too late
TTITLE9=keep on walking
TTITLE10=the good old days
EXTD=YEAR: 1992
EXTT0=
EXTT1=
EXTT2=
EXTT3=
EXTT4=
EXTT5=
EXTT6=
EXTT7=
EXTT8=
EXTT9=
EXTT10=
PLAYORDER=
